# xmcd
# 
# Track frame offsets:
#     150
#     24100
#     40237
#     58687
#     76520
#     91995
#     108620
#     122032
#     132860
#     148487
#     169365
#     181065
#     198095
#     215480
# 
# Disc length: 3051
# 
# Revision: 1
# Processed by: cddbd v1.5.2PL0 Copyright (c) Steve Scherf et al.
# Submitted via: fre:ac v1.0.31
# 
DISCID=bd0be90e
DTITLE=Various Artist - Cinema Boutique Vol.11 Dancing silhouette
DYEAR=1990
DGENRE=サウンドトラック
TTITLE0=Irene Cara - Fame
TTITLE1=Bee Gees - Night Fever
TTITLE2=Bee Gees - How Deep Is Your Love
TTITLE3=Frank P. Stallone, Jr. - Far From Over
TTITLE4=Frankie Valli - Grease
TTITLE5=Maxwell Caulfield and Michelle Marie Pfeiffer - (Love Will) Turn Back The Hands Of Time
TTITLE6=Los Lobos - La Bamba
TTITLE7=Los Lobos - Donna
TTITLE8=Bananarama - I Heard a Rumour
TTITLE9=Ollie and Jerry - Breakin'... There's No Stopping Us
TTITLE10=Jerry Lee Lewis - Great Balls of Fire
TTITLE11=シネマ・サウンド・オーケストラ - What a Feelin'
TTITLE12=シネマ・サウンド・オーケストラ - Footloose
TTITLE13=Fred Astaire - 'S Wonderful
EXTD=YEAR: 1990
EXTT0=
EXTT1=
EXTT2=
EXTT3=
EXTT4=
EXTT5=
EXTT6=
EXTT7=
EXTT8=
EXTT9=
EXTT10=
EXTT11=
EXTT12=
EXTT13=
PLAYORDER=
